<svg width="64" height="64" viewBox="0 0 192 192" xmlns="http://www.w3.org/2000/svg">
  <path fill="#FF6384" d="M161.271,96.556c-22.368,0.439-17.709,14.599-33.473,18.18c-16.014,3.638-18.542-39.111-34.552-39.111c-16.012,0-19.559,41.526-39.608,70.034l-0.572,0.807l42.985,24.813l65.22-37.67V96.556z"/>
  <path fill="#36A2EB" d="M161.271,95.267c-7.488-9.61-12.567-20.658-23.494-20.658c-19.337,0-14.249,31.4-35.62,31.4c-21.373,0-23.62-33.797-47.832-2.035l-1.801,12.322l61.512,35.517l47.234-27.293V95.267z"/>
  <path fill="#FFCE56" d="M30.829,108.334c7.338-20.321,10.505-36.779,24.514-36.779c21.371,0,26.458,60.039,44.779,53.931c18.318-6.105,16.282-38.669,44.779-38.669c5.424,0,10.962,3.323,16.371,8.698v38.113l-51.513,29.748l-65.22-37.67l-13.71-17.373z"/>
</svg>