<svg xmlns="http://www.w3.org/2000/svg" viewBox="0 0 25.6 25.6" width="64" height="64"><g fill="none" stroke="#fff"><path d="M18.983 18.636c.163-1.357.114-1.555 1.124-1.336l.257.023c.777.035 1.793-.125 2.4-.402 1.285-.596 2.047-1.592.78-1.33-2.89.596-3.1-.383-3.1-.383 3.053-4.53 4.33-10.28 3.227-11.687-3.004-3.84-8.205-2.024-8.292-1.976l-.028.005c-.57-.12-1.2-.19-1.93-.2-1.308-.02-2.3.343-3.054.914 0 0-9.277-3.822-8.846 4.807.092 1.836 2.63 13.9 5.66 10.25C8.29 15.987 9.36 14.86 9.36 14.86c.53.353 1.167.533 1.834.468l.052-.044a2.01 2.01 0 0 0 .021.518c-.78.872.10 1.768 1.147 2.22 1.21.52 2.232.17 2.792-.37.065-.06.15-.118.22-.185.425.338.97.52 1.955.41 1.03-.13 1.722-.56 1.748-1.42.02-.62.06-.62.124-.8l-.006-.01z" fill="#000" stroke="#000"/><path d="M23.535 15.6c-2.89.596-3.1-.383-3.1-.383 3.053-4.53 4.33-10.28 3.228-11.687-3.004-3.84-8.205-2.023-8.292-1.976l-.028.005a10.31 10.31 0 0 0-1.929-.201c-1.308-.02-2.3.343-3.054.914 0 0-9.278-3.822-8.846 4.807.092 1.836 2.63 13.9 5.66 10.25C8.29 15.987 9.36 14.86 9.36 14.86c.53.353 1.167.533 1.834.468l.052-.044a2.02 2.02 0 0 0 .021.518c-.78.872.10 1.768 1.147 2.22 1.21.52 2.232.17 2.792-.37.065-.06.15-.118.22-.185.425.338.97.52 1.955.41 1.03-.13 1.722-.56 1.748-1.42.02-.62.06-.62.124-.8l-.006-.01c.163-1.357.114-1.555 1.124-1.336l.257.023c.777.035 1.793-.125 2.4-.402 1.285-.596 2.047-1.592.78-1.33z" fill="#336791" stroke="none"/><path d="M12.814 16.467c-.08 1.043-.627 1.924-1.226 1.985-.599.06-1.03-.73-.95-1.772s.627-1.905 1.226-1.965c.599-.06 1.03.71.95 1.752z" fill="#fff" stroke="none"/><path d="M12.83 16.423c-.055.714-.43 1.32-.84 1.36-.409.04-.706-.5-.65-1.214.055-.714.43-1.304.84-1.345.41-.04.707.485.65 1.2z" fill="#fff" stroke="none"/><path d="M20.425 15.17c-.06.752-.464 1.372-.9 1.388-.436.016-.736-.587-.677-1.34.06-.753.464-1.373.9-1.388.436-.016.736.588.677 1.34z" fill="#fff" stroke="none"/><path d="M9.554 3.2c.055-.436.376-.78.716-.772.34.008.578.36.523.796-.055.436-.376.78-.716.773-.34-.008-.578-.36-.523-.797z" fill="#fff" stroke="none"/><path d="M11.226 3.418c.233.217.506.394.806.504.302.11.62.14.93.09.31-.05.596-.182.83-.383.234-.2.403-.466.48-.764.31.196.5.445.55.726.05.28-.02.57-.2.812-.18.243-.45.42-.77.497-.32.08-.65.04-.95-.112-.3-.15-.54-.4-.67-.723z" fill="#fff" stroke="none"/><path d="M20.514 15.12c-.06.75-.464 1.37-.9 1.387-.435.016-.735-.587-.676-1.34.06-.753.464-1.373.9-1.388.436-.016.736.588.677 1.34z" fill="#fff" stroke="none"/><path d="M17.433 15.623c-.153.292-.45.497-.788.552l-.38.122c-1.434.078-2.36-.855-2.36-.855 1.135-1.253 2.2-1.093 2.2-1.093.51.058.955.55 1.2 1.1.06.134.1.275.128.415z" stroke="#fff" stroke-width=".2"/><path d="M14.457 16.01c-.08 1.045-.627 1.924-1.226 1.985-.599.06-1.03-.73-.95-1.772s.627-1.905 1.226-1.965c.599-.06 1.03.71.95 1.752z" fill="#fff" stroke="none"/><path d="M14.472 15.967c-.054.714-.43 1.32-.84 1.36-.409.04-.706-.5-.65-1.214.055-.714.43-1.304.84-1.345.409-.04.707.485.65 1.2z" fill="#fff" stroke="none"/></g></svg>